<mxfile host="app.diagrams.net" agent="Mozilla/5.0 (Macintosh; Intel Mac OS X 10_15_7) AppleWebKit/605.1.15 (KHTML, like Gecko) Version/18.0.1 Safari/605.1.15" version="26.0.14">
  <diagram name="Page-1" id="Tqz4WJMcs0liZyRWSP5g">
    <mxGraphModel dx="1145" dy="593" grid="1" gridSize="10" guides="1" tooltips="1" connect="1" arrows="1" fold="1" page="1" pageScale="1" pageWidth="850" pageHeight="1100" math="0" shadow="0">
      <root>
        <mxCell id="0" />
        <mxCell id="1" parent="0" />
        <mxCell id="Zl06BuRH7Ai27-u7uzlJ-1" value="Client" style="rounded=0;whiteSpace=wrap;html=1;" vertex="1" parent="1">
          <mxGeometry x="200" y="380" width="90" height="40" as="geometry" />
        </mxCell>
        <mxCell id="Zl06BuRH7Ai27-u7uzlJ-2" value="&lt;u&gt;ClientID&lt;/u&gt;" style="ellipse;whiteSpace=wrap;html=1;" vertex="1" parent="1">
          <mxGeometry x="130" y="270" width="110" height="50" as="geometry" />
        </mxCell>
        <mxCell id="Zl06BuRH7Ai27-u7uzlJ-3" value="" style="endArrow=none;html=1;rounded=0;exitX=0.5;exitY=1;exitDx=0;exitDy=0;entryX=0.126;entryY=0.008;entryDx=0;entryDy=0;entryPerimeter=0;" edge="1" parent="1" source="Zl06BuRH7Ai27-u7uzlJ-2" target="Zl06BuRH7Ai27-u7uzlJ-1">
          <mxGeometry width="50" height="50" relative="1" as="geometry">
            <mxPoint x="120" y="400" as="sourcePoint" />
            <mxPoint x="210" y="370" as="targetPoint" />
          </mxGeometry>
        </mxCell>
        <mxCell id="Zl06BuRH7Ai27-u7uzlJ-4" value="name" style="ellipse;whiteSpace=wrap;html=1;" vertex="1" parent="1">
          <mxGeometry x="270" y="270" width="110" height="50" as="geometry" />
        </mxCell>
        <mxCell id="Zl06BuRH7Ai27-u7uzlJ-5" value="" style="endArrow=none;html=1;rounded=0;entryX=0.429;entryY=1.036;entryDx=0;entryDy=0;entryPerimeter=0;exitX=0.889;exitY=0;exitDx=0;exitDy=0;exitPerimeter=0;" edge="1" parent="1" source="Zl06BuRH7Ai27-u7uzlJ-1" target="Zl06BuRH7Ai27-u7uzlJ-4">
          <mxGeometry width="50" height="50" relative="1" as="geometry">
            <mxPoint x="330" y="390" as="sourcePoint" />
            <mxPoint x="380" y="340" as="targetPoint" />
          </mxGeometry>
        </mxCell>
      </root>
    </mxGraphModel>
  </diagram>
</mxfile>
